<svg height="512" viewBox="0 0 512 512" width="512" xmlns="http://www.w3.org/2000/svg"><g><g fill="#57a4ff"><path d="m280 89.71v30.29l-40 32-48 8-23.67-47.34h.01a168.365 168.365 0 0 1 111.66-22.95z"/><path d="m296 400-2.47 19.79a168.3 168.3 0 0 1 -147.14-36.48h-.01v-.01l5.62-39.3 40-24 16 48 48 8 24 24z"/><path d="m422.88 236.56-22.88 11.44-16-16-8 24h-24l-48 40-80-40 8-40 24-32 48-32 11.79-53.05a168.163 168.163 0 0 1 107.09 137.61z"/><path d="m136 208 40-16 8 40-24 16-16-16z"/></g><g fill="#004fac"><path d="m256 80c-97.05 0-176 78.95-176 176s78.95 176 176 176 176-78.95 176-176-78.95-176-176-176zm55.81 73.74 9.71-43.7a160.473 160.473 0 0 1 92.67 121.92l-12.61 6.31-11.92-11.93a8 8 0 0 0 -13.25 3.13l-6.18 18.53h-18.23a8.045 8.045 0 0 0 -5.12 1.85l-43.98 36.65-69.86-34.92 6.45-32.23 22.09-29.45 46.86-31.24a8.057 8.057 0 0 0 3.37-4.92zm-55.81-57.74a159.6 159.6 0 0 1 16 .8v19.35l-35.37 28.3-40.12 6.69-17.64-35.28a158.98 158.98 0 0 1 77.13-19.86zm30.3 317.11a159.805 159.805 0 0 1 -131.36-33.16l4.44-31.05 28.18-16.91 12.85 38.54a8.008 8.008 0 0 0 6.27 5.36l45.48 7.58 22.18 22.19a8.008 8.008 0 0 0 5.66 2.34h6.94zm16.64-4.14 1-7.98a8 8 0 0 0 -7.94-8.99h-12.69l-21.65-21.66a7.975 7.975 0 0 0 -4.34-2.23l-43.25-7.21-14.48-43.43a8.006 8.006 0 0 0 -11.71-4.33l-40 24a8 8 0 0 0 -3.8 5.73l-3.42 23.91a159.8 159.8 0 0 1 24.56-242.46l19.62 39.26a8.012 8.012 0 0 0 7.16 4.42 8.6 8.6 0 0 0 1.32-.11l48-8a8.023 8.023 0 0 0 3.68-1.64l40-32a8 8 0 0 0 3-6.25v-20.78a159.768 159.768 0 0 1 18.44 4.93l-9.55 42.98-45.33 30.21a8.059 8.059 0 0 0 -1.96 1.86l-24 32a7.921 7.921 0 0 0 -1.44 3.23l-8 40a8.011 8.011 0 0 0 4.26 8.73l80 40a8.1 8.1 0 0 0 3.58.84 8.018 8.018 0 0 0 5.12-1.85l45.78-38.15h21.1a8 8 0 0 0 7.59-5.47l3.91-11.72 6.84 6.85a8.034 8.034 0 0 0 9.24 1.5l12.26-6.14c.1 2.32.16 4.64.16 6.98 0 71.9-47.67 132.86-113.06 152.97z"/><path d="m472 256a215.4 215.4 0 0 0 -66.461-155.866 8 8 0 1 0 -11.078 11.544 199.847 199.847 0 0 1 -1.936 290.477 8 8 0 1 0 10.924 11.69 215.43 215.43 0 0 0 68.551-157.845z"/><path d="m429.678 75.641a8 8 0 1 0 -11.355 11.273 240 240 0 0 1 -1.237 339.409 8 8 0 1 0 11.273 11.354 256 256 0 0 0 1.319-362.036z"/><path d="m56 256a199.427 199.427 0 0 1 63.475-146.155 8 8 0 0 0 -10.924-11.69 215.844 215.844 0 0 0 -2.09 313.711 8 8 0 1 0 11.078-11.544 198.321 198.321 0 0 1 -61.539-144.322z"/><path d="m24 256a238.35 238.35 0 0 1 70.914-170.323 8 8 0 1 0 -11.273-11.354 256 256 0 0 0 -1.319 362.036 8 8 0 0 0 11.356-11.273 238.5 238.5 0 0 1 -69.678-169.086z"/><path d="m183.845 190.431a8 8 0 0 0 -10.816-5.859l-40 16a8 8 0 0 0 -4.619 9.958l8 24a8.018 8.018 0 0 0 1.933 3.127l16 16a8 8 0 0 0 10.095 1l24-16a8 8 0 0 0 3.407-8.225zm-22.825 47.275-10.028-10.027-5.017-15.053 24.066-9.626 5.063 25.315z"/></g></g></svg>